<svg xmlns="http://www.w3.org/2000/svg" viewBox="0 0 120 120"><title>VentaLibra</title><rect width="120" height="120" rx="27" fill="#d97706"/><g transform="translate(9 9) scale(.85)"><g transform="rotate(16 56 56)" opacity=".35"><path d="M38 30h40a6 6 0 0 1 6 6v36a6 6 0 0 1-6 6H38L20 54z" fill="#ffffff"/></g><g transform="rotate(-12 56 56)"><path d="M38 32h44a6 6 0 0 1 6 6v36a6 6 0 0 1-6 6H38L18 56z" fill="#ffffff"/><circle cx="33" cy="56" r="5" fill="#d97706"/><rect x="46" y="42" width="3" height="22" rx="1" fill="#451a03"/><rect x="51" y="42" width="2" height="22" rx="1" fill="#451a03"/><rect x="55" y="42" width="4.5" height="22" rx="1" fill="#451a03"/><rect x="62" y="42" width="2" height="22" rx="1" fill="#451a03"/><rect x="66" y="42" width="3" height="22" rx="1" fill="#451a03"/><rect x="71" y="42" width="2" height="22" rx="1" fill="#451a03"/><rect x="75" y="42" width="4.5" height="22" rx="1" fill="#451a03"/><rect x="46" y="68" width="18" height="4" rx="2" fill="#fde68a"/></g><rect x="62" y="62" width="38" height="38" rx="10" fill="#451a03" stroke="#d97706" stroke-width="8" paint-order="stroke" stroke-linejoin="round"/><path d="M70 77v-7h7M92 77v-7h-7M70 85v7h7M92 85v7h-7" fill="none" stroke="#ffffff" stroke-width="3.5" stroke-linecap="round" stroke-linejoin="round"/><rect x="67" y="79.5" width="28" height="3.5" rx="1.75" fill="#f87171"/></g></svg>
